
<svg width="183" height="36" viewBox="0 0 183 36" fill="none" xmlns="http://www.w3.org/2000/svg">
<g clip-path="url(#clip0_5_188)">
<path d="M40.678 22.1841L42.0394 19.9903C42.4932 20.355 42.9773 20.6803 43.4863 20.9627C43.9268 21.2131 44.3973 21.4066 44.8866 21.5384C45.3546 21.6562 45.8353 21.7163 46.318 21.7173C46.8737 21.7309 47.4266 21.633 47.9439 21.4295C48.3645 21.2703 48.7351 21.0017 49.0174 20.6515C49.2687 20.3034 49.3998 19.8828 49.3908 19.4535C49.409 18.9825 49.2446 18.5226 48.9318 18.17C48.5895 17.7955 48.1773 17.4915 47.7183 17.2753C47.2204 17.0264 46.6836 16.7775 46.1157 16.5441C45.5479 16.3107 45.0655 16.0929 44.5599 15.8362C44.0448 15.5882 43.5594 15.2829 43.1129 14.926C42.6792 14.577 42.3218 14.1428 42.0627 13.6502C41.7838 13.0877 41.6475 12.4652 41.666 11.8376C41.6471 10.9835 41.8915 10.1442 42.3661 9.4338C42.8493 8.74639 43.5147 8.20754 44.2876 7.87794C45.1697 7.49113 46.1251 7.30004 47.0882 7.31783C47.8568 7.32012 48.6223 7.41678 49.3675 7.60566C50.1773 7.80219 50.9608 8.09468 51.7013 8.47694L50.5577 10.8107C50.0425 10.5047 49.4911 10.2643 48.9163 10.095C48.3765 9.93035 47.8158 9.84389 47.2515 9.83832C46.7831 9.82946 46.3176 9.9141 45.8823 10.0873C45.5157 10.228 45.1952 10.4677 44.9566 10.7796C44.7354 11.0848 44.6181 11.4529 44.6221 11.8298C44.6113 12.2711 44.77 12.6998 45.0655 13.0278C45.4008 13.3785 45.7926 13.6704 46.2246 13.8913C46.6992 14.1403 47.2126 14.3814 47.7805 14.6226C48.3484 14.8638 48.8696 15.1127 49.4219 15.4005C49.9547 15.6689 50.4579 15.9922 50.9233 16.3652C51.3699 16.7279 51.7378 17.1779 52.0046 17.6876C52.2916 18.2645 52.4331 18.9028 52.4169 19.5469C52.4338 20.4307 52.1756 21.2979 51.6779 22.0285C51.162 22.7641 50.4506 23.3408 49.6242 23.6932C48.6405 24.1085 47.5798 24.31 46.5124 24.2845C44.4169 24.2991 42.3816 23.584 40.7558 22.2618L40.678 22.1841Z" fill="#040404"/>
<path d="M64.848 23.88H62.1719V18.1466C62.2178 17.3695 61.9708 16.6034 61.4796 15.9995C61.2416 15.7404 60.9497 15.5364 60.6245 15.402C60.2993 15.2676 59.9485 15.2061 59.597 15.2216C59.2301 15.2062 58.8644 15.2729 58.5266 15.417C58.1888 15.561 57.8873 15.7786 57.6444 16.054C57.1093 16.6715 56.831 17.4704 56.8665 18.2866V23.8877H54.1904V12.9967H56.3997L56.4853 14.7393C56.8584 14.1191 57.3973 13.6153 58.0411 13.2846C58.7394 12.9311 59.5148 12.7572 60.2972 12.7789C60.9081 12.7474 61.5188 12.8447 62.0898 13.0645C62.6607 13.2843 63.179 13.6217 63.6111 14.0547C64.4589 15.0355 64.8914 16.3078 64.8169 17.6021L64.848 23.88Z" fill="#040404"/>
<path d="M68.4344 10.1339C68.256 10.1384 68.0787 10.1054 67.9138 10.0371C67.749 9.96871 67.6004 9.86657 67.4775 9.73721C67.2335 9.47994 67.0974 9.13885 67.0974 8.78424C67.0974 8.42964 67.2335 8.08855 67.4775 7.83128C67.6004 7.70191 67.749 7.59977 67.9138 7.53143C68.0787 7.46309 68.256 7.43007 68.4344 7.43452C68.6202 7.4204 68.807 7.44482 68.983 7.50624C69.159 7.56767 69.3204 7.6648 69.4571 7.79151C69.5938 7.91822 69.7028 8.0718 69.7774 8.24263C69.852 8.41345 69.8905 8.59785 69.8905 8.78424C69.8905 8.97064 69.852 9.15503 69.7774 9.32586C69.7028 9.49668 69.5938 9.65026 69.4571 9.77698C69.3204 9.90369 69.159 10.0008 68.983 10.0622C68.807 10.1236 68.6202 10.1481 68.4344 10.1339V10.1339ZM69.7646 23.88H67.0963V12.9889H69.7646V23.88Z" fill="#040404"/>
<path d="M74.9145 29.3177H72.2462V13.0201H74.58L74.7122 14.537C75.1898 13.9929 75.7788 13.5578 76.4393 13.2612C77.1305 12.9484 77.8822 12.7917 78.6408 12.8022C79.6003 12.784 80.545 13.0404 81.3636 13.5413C82.1644 14.0294 82.8178 14.7258 83.2539 15.5561C83.709 16.4529 83.9462 17.4444 83.9462 18.45C83.9462 19.4557 83.709 20.4471 83.2539 21.3439C82.8263 22.1703 82.1841 22.8663 81.3947 23.3587C80.5802 23.8733 79.6352 24.1433 78.6719 24.1367C77.9626 24.1441 77.2589 24.0092 76.6026 23.7399C75.9731 23.4759 75.402 23.0899 74.9223 22.6042L74.9145 29.3177ZM78.0885 21.6862C78.6587 21.6978 79.2211 21.5525 79.7144 21.2661C80.1848 20.9929 80.5699 20.5943 80.8268 20.1148C81.0945 19.5983 81.2307 19.0239 81.2235 18.4422C81.2319 17.857 81.0928 17.2792 80.819 16.7619C80.5599 16.2841 80.1752 15.886 79.7066 15.6106C79.2156 15.3256 78.6561 15.1803 78.0885 15.1905C77.5579 15.183 77.0342 15.3113 76.5672 15.5631C76.1002 15.815 75.7053 16.1822 75.4202 16.6297C75.1255 17.0984 74.9517 17.633 74.9145 18.1855V18.769C74.9515 19.3203 75.1224 19.8544 75.4124 20.3248C75.6892 20.7587 76.0721 21.1148 76.5248 21.3595C77.011 21.5961 77.5483 21.7083 78.0885 21.6862Z" fill="#040404"/>
<path d="M88.3493 29.3177H85.6732V13.0201H88.007L88.1392 14.537C88.6184 13.9946 89.207 13.5598 89.8663 13.2612C90.5603 12.9485 91.3144 12.7918 92.0756 12.8022C93.0349 12.7853 93.9792 13.0416 94.7983 13.5413C95.5955 14.0339 96.2478 14.7291 96.6887 15.5561C97.139 16.4543 97.3735 17.4452 97.3735 18.45C97.3735 19.4548 97.139 20.4457 96.6887 21.3439C96.2478 22.1709 95.5955 22.8662 94.7983 23.3587C93.9833 23.8721 93.0387 24.142 92.0756 24.1367C91.3637 24.1435 90.6577 24.0086 89.9985 23.7399C89.3702 23.4778 88.8013 23.0915 88.3259 22.6042L88.3493 29.3177ZM91.5233 21.6862C92.0908 21.6964 92.6504 21.5511 93.1413 21.2661C93.6117 20.9929 93.9969 20.5943 94.2538 20.1148C94.5249 19.5996 94.6613 19.0243 94.6505 18.4422C94.6627 17.8566 94.5234 17.2778 94.246 16.7619C93.99 16.2844 93.6079 15.8862 93.1413 15.6106C92.4332 15.1902 91.5894 15.0614 90.7882 15.2516C89.9869 15.4418 89.2909 15.9359 88.8472 16.6297C88.5549 17.099 88.3838 17.6337 88.3493 18.1855V18.769C88.3837 19.3197 88.5519 19.8538 88.8394 20.3248C89.117 20.7608 89.503 21.1173 89.9596 21.3595C90.4406 21.5951 90.9725 21.7074 91.5077 21.6862H91.5233Z" fill="#040404"/>
<path d="M108.957 22.6586C107.676 23.6217 106.117 24.1406 104.515 24.1367C103.428 24.1459 102.357 23.8782 101.403 23.3587C100.5 22.8743 99.7423 22.1572 99.2093 21.2817C98.6738 20.3848 98.404 19.3542 98.4313 18.31C98.4152 17.3223 98.6679 16.3489 99.1626 15.4939C99.645 14.6753 100.338 14.001 101.17 13.5413C102.052 13.0541 103.048 12.8073 104.056 12.8256C105.09 12.8003 106.11 13.0701 106.996 13.6035C107.845 14.1324 108.527 14.8901 108.964 15.7895C109.457 16.7984 109.7 17.911 109.672 19.0335V19.3757H101.247C101.369 19.8594 101.604 20.3073 101.932 20.6827C102.275 21.0632 102.697 21.3633 103.169 21.5617C103.696 21.7798 104.263 21.8884 104.834 21.8807C106.002 21.8752 107.134 21.4749 108.047 20.7449L108.957 22.6586ZM101.177 17.8354H107.175C107.129 17.3273 106.958 16.8384 106.677 16.4118C106.412 16.0126 106.051 15.6862 105.627 15.4628C105.177 15.2322 104.678 15.1147 104.172 15.1205C103.666 15.1115 103.165 15.232 102.718 15.4705C102.294 15.695 101.935 16.0245 101.675 16.4274C101.395 16.8373 101.212 17.3054 101.139 17.7965L101.177 17.8354Z" fill="#040404"/>
<path d="M118.152 23.5999C117.416 23.9217 116.622 24.0911 115.818 24.0978C115.118 24.1131 114.426 23.944 113.811 23.6077C113.242 23.2908 112.776 22.8186 112.465 22.2463C112.13 21.6203 111.964 20.9179 111.983 20.2081V15.4083H110.1V13.0201H112.146V10.2973H114.675V13.0201H117.786V15.4083H114.675V19.718C114.645 20.2529 114.827 20.778 115.18 21.1805C115.343 21.3527 115.539 21.4887 115.758 21.5799C115.976 21.671 116.212 21.7152 116.448 21.7095C116.924 21.7004 117.388 21.5575 117.786 21.2972L118.152 23.5999Z" fill="#040404"/>
<path d="M118.945 22.9464L119.552 20.6126C119.818 20.872 120.119 21.0921 120.447 21.2661C120.805 21.4648 121.187 21.6189 121.582 21.7251C121.964 21.8378 122.359 21.8955 122.757 21.8962C123.194 21.9151 123.628 21.8041 124.002 21.5773C124.145 21.4885 124.263 21.3648 124.344 21.2178C124.426 21.0708 124.469 20.9053 124.469 20.7371C124.471 20.6081 124.446 20.4801 124.397 20.361C124.347 20.2419 124.274 20.1343 124.181 20.0448C123.953 19.8355 123.69 19.6694 123.403 19.5547C123.099 19.4146 122.765 19.2746 122.407 19.1346C121.911 18.9555 121.425 18.7477 120.952 18.5122C120.475 18.2844 120.053 17.9552 119.715 17.5476C119.371 17.0864 119.198 16.5199 119.225 15.9451C119.21 15.35 119.381 14.7651 119.715 14.2725C120.064 13.7829 120.544 13.4025 121.1 13.1756C121.759 12.9082 122.466 12.7785 123.177 12.7945C124.476 12.8074 125.752 13.1272 126.904 13.728L126.126 15.9217C125.861 15.7308 125.577 15.5691 125.278 15.4394C124.947 15.2998 124.606 15.1854 124.259 15.0971C123.948 15.0159 123.63 14.9715 123.309 14.9649C122.96 14.9484 122.614 15.0438 122.321 15.2371C122.205 15.3159 122.111 15.4228 122.047 15.548C121.983 15.6731 121.951 15.8124 121.956 15.9528C121.953 16.1556 122.025 16.3522 122.158 16.5052C122.339 16.7 122.556 16.8584 122.796 16.9719C123.092 17.1275 123.465 17.2987 123.916 17.4854C124.424 17.6764 124.92 17.8972 125.402 18.1466C125.884 18.3841 126.311 18.7208 126.655 19.1346C127.008 19.5975 127.188 20.1706 127.16 20.7527C127.171 21.3794 126.98 21.993 126.616 22.503C126.238 23.0248 125.72 23.4293 125.122 23.6699C124.41 23.9631 123.644 24.1061 122.874 24.09C121.483 24.0878 120.12 23.6913 118.945 22.9464Z" fill="#040404"/>
<path d="M145.574 11.3786C145.051 10.8595 144.426 10.4543 143.738 10.1884C143.01 9.91285 142.237 9.77311 141.459 9.7761C140.691 9.76911 139.929 9.91453 139.218 10.204C138.551 10.4756 137.951 10.8898 137.46 11.4175C136.958 11.9576 136.57 12.5923 136.317 13.2846C136.043 14.0534 135.909 14.8647 135.92 15.6806C135.91 16.5072 136.047 17.3289 136.324 18.1077C136.579 18.8128 136.97 19.4605 137.476 20.0136C137.97 20.5468 138.572 20.9685 139.242 21.2506C139.954 21.5455 140.719 21.6936 141.49 21.6862C142.157 21.6937 142.821 21.5831 143.45 21.3594C144.025 21.1417 144.553 20.817 145.006 20.4026C145.47 19.9734 145.85 19.4616 146.126 18.8934C146.424 18.2786 146.618 17.6189 146.702 16.9408H141.552V14.7237H149.23L149.308 15.8051C149.32 16.9628 149.127 18.1135 148.74 19.2046C148.382 20.1915 147.829 21.0963 147.114 21.8651C146.412 22.6152 145.558 23.2066 144.609 23.5999C143.598 24.0148 142.513 24.2211 141.42 24.2067C140.273 24.2192 139.136 24.0024 138.075 23.5688C137.073 23.1511 136.162 22.5435 135.391 21.7795C134.624 21.0098 134.018 20.0947 133.609 19.0879C132.769 16.9316 132.769 14.5384 133.609 12.3822C134.02 11.376 134.623 10.4592 135.383 9.68275C136.143 8.90873 137.054 8.29962 138.059 7.8935C139.116 7.46375 140.248 7.24698 141.389 7.25562C142.502 7.25005 143.607 7.45048 144.648 7.84683C145.676 8.22828 146.623 8.79815 147.441 9.52716L145.574 11.3786Z" fill="#040404"/>
<path d="M161.521 23.8799H159.312L159.226 22.1296C158.854 22.7527 158.315 23.2593 157.671 23.5921C156.97 23.9463 156.192 24.1201 155.407 24.0978C154.796 24.1291 154.186 24.0309 153.616 23.8097C153.047 23.5885 152.53 23.2492 152.101 22.8142C151.249 21.835 150.814 20.5622 150.887 19.2668V13.0434H153.563V18.769C153.517 19.5461 153.764 20.3121 154.255 20.916C154.489 21.1785 154.779 21.3848 155.104 21.5195C155.429 21.6542 155.779 21.7138 156.13 21.694C156.498 21.7083 156.865 21.6412 157.204 21.4973C157.543 21.3534 157.846 21.1363 158.091 20.8616C158.622 20.2421 158.9 19.4446 158.869 18.6289V13.0278H161.521V23.8799Z" fill="#040404"/>
<path d="M166.648 23.88H163.972V12.989H166.306L166.407 14.9649C166.762 14.289 167.301 13.7279 167.963 13.3468C168.631 12.9527 169.396 12.7533 170.172 12.7711C170.396 12.7727 170.619 12.7857 170.841 12.81C171.067 12.81 171.292 12.8878 171.518 12.9423L171.191 15.3538C170.77 15.2263 170.332 15.1608 169.892 15.1594C169.301 15.1446 168.718 15.2984 168.212 15.6028C167.728 15.9018 167.337 16.3302 167.084 16.8397C166.809 17.4092 166.673 18.0357 166.687 18.6678L166.648 23.88Z" fill="#040404"/>
<path d="M183 23.8799H180.791L180.705 22.1296C180.333 22.7527 179.794 23.2593 179.149 23.5921C178.448 23.9463 177.67 24.1201 176.885 24.0978C176.275 24.1291 175.665 24.0309 175.095 23.8097C174.525 23.5885 174.009 23.2492 173.579 22.8142C172.728 21.835 172.293 20.5622 172.366 19.2668V13.0434H175.042V18.769C174.996 19.5461 175.243 20.3121 175.734 20.916C175.967 21.1775 176.256 21.3831 176.579 21.5178C176.902 21.6524 177.252 21.7127 177.601 21.694C177.97 21.7095 178.338 21.6429 178.679 21.4989C179.019 21.355 179.323 21.1373 179.569 20.8616C180.087 20.2364 180.351 19.4395 180.308 18.6289V13.0278H182.984L183 23.8799Z" fill="#040404"/>
<path d="M15.2163 7.91685H10.0664V10.3051H15.2163V7.91685Z" fill="#040404"/>
<path d="M12.5013 31.7293V22.1996C12.5013 21.8798 12.6284 21.5731 12.8545 21.347C13.0806 21.1209 13.3873 20.9938 13.7071 20.9938H21.5487C21.8671 20.9959 22.1718 21.1238 22.3962 21.3497C22.6207 21.5756 22.7467 21.8812 22.7467 22.1996V31.7293" stroke="#040404" stroke-width="2.17042" stroke-miterlimit="10"/>
<path d="M17.5891 24.3467V35.8523" stroke="#040404" stroke-width="2.17042" stroke-miterlimit="10"/>
<path d="M33.3887 14.4048C33.0947 14.0948 32.8678 13.7276 32.7219 13.3261C32.576 12.9246 32.5144 12.4974 32.5408 12.071C32.5408 12.071 32.5408 8.48472 32.5408 8.14244C32.5408 6.71105 32.6185 5.08518 31.934 3.91829C31.47 3.0325 30.7739 2.28952 29.9203 1.76882C29.0666 1.24812 28.0874 0.969271 27.0875 0.962143L27.0175 1.00884V3.34263C27.8353 3.37924 28.6073 3.7304 29.1723 4.3228C29.7408 4.89585 30.0596 5.67048 30.0592 6.47768C30.0592 7.47343 30.1136 12.0788 30.1136 12.0788C30.118 12.9024 30.3263 13.7122 30.7199 14.4358C31.1136 15.1593 31.6804 15.7741 32.3696 16.2251C31.6802 16.6779 31.1135 17.2941 30.7199 18.0189C30.3263 18.7436 30.1181 19.5545 30.1136 20.3793C30.1136 20.3793 30.0592 24.9846 30.0592 25.9803C30.0538 26.7864 29.7359 27.5589 29.1723 28.1352C28.6073 28.7276 27.8353 29.0788 27.0175 29.1154V31.4492L27.0875 31.4959C28.0871 31.487 29.0655 31.2075 29.9189 30.687C30.7723 30.1665 31.4687 29.4244 31.934 28.5397C32.6185 27.3728 32.5797 25.747 32.5408 24.3156C32.5408 23.9733 32.5408 20.387 32.5408 20.387C32.518 19.961 32.5814 19.5348 32.727 19.1338C32.8727 18.7328 33.0978 18.3653 33.3887 18.0532C33.8754 17.5172 34.5493 17.1886 35.2713 17.1353V15.3227C34.5497 15.2678 33.8763 14.9395 33.3887 14.4048V14.4048Z" fill="#68C0F1"/>
<path d="M1.88257 14.4047C2.17654 14.0947 2.40356 13.7275 2.54945 13.326C2.69533 12.9245 2.75697 12.4973 2.73054 12.0709C2.73054 12.0709 2.73054 8.48463 2.73054 8.14234C2.69164 6.71095 2.65272 5.08509 3.3373 3.9182C3.80195 3.03296 4.4982 2.29043 5.35173 1.76982C6.20526 1.24921 7.18409 0.970023 8.18383 0.962051L8.2616 1.00875V3.34254C7.44106 3.37716 6.6659 3.72849 6.09898 4.32271C5.53049 4.89576 5.21168 5.67039 5.21213 6.47759C5.21213 7.47334 5.16546 12.0787 5.16546 12.0787C5.15755 12.9025 4.94687 13.7118 4.55205 14.4349C4.15724 15.1581 3.59041 15.7729 2.90166 16.225C3.59102 16.6784 4.15814 17.2946 4.55295 18.0191C4.94776 18.7436 5.15814 19.5541 5.16546 20.3792C5.16546 20.3792 5.21213 24.9845 5.21213 25.9802C5.21749 26.7863 5.53543 27.5588 6.09898 28.1351C6.6659 28.7294 7.44106 29.0807 8.2616 29.1153V31.4491L8.18383 31.4958C7.18445 31.4861 6.20629 31.2062 5.35306 30.6858C4.49982 30.1654 3.80328 29.4238 3.3373 28.5396C2.65272 27.3727 2.69164 25.7469 2.73054 24.3155C2.73054 23.9732 2.73054 20.3869 2.73054 20.3869C2.75331 19.9609 2.68996 19.5347 2.54427 19.1337C2.39858 18.7327 2.17351 18.3652 1.88257 18.0532C1.39592 17.5172 0.721998 17.1886 0 17.1352V15.3226C0.721577 15.2677 1.39495 14.9394 1.88257 14.4047V14.4047Z" fill="#68C0F1"/>
<path d="M19.596 7.90129H16.951L20.2184 15.0271H17.1611V17.4543H24.0069L20.7396 10.3284L19.596 7.90129Z" fill="#040404"/>
<path d="M21.4398 7.90129L22.5056 10.3284H25.2439V7.90129H21.4398Z" fill="#2B2765"/>
</g>
<defs>
<clipPath id="clip0_5_188">
<rect width="183" height="34.8746" fill="white" transform="translate(0 0.977722)"/>
</clipPath>
</defs>
</svg>
