<svg width="180" height="36" viewBox="0 0 180 36" fill="none" xmlns="http://www.w3.org/2000/svg">
  <g clip-path="url(#clip0_5_188)" transform="matrix(1, 0, 0, 1, 0, -1)">
    <path d="M 15.216 8.917 L 10.066 8.917 L 10.066 11.305 L 15.216 11.305 L 15.216 8.917 Z" fill="#3f3735"></path>
    <path d="M 12.501 32.729 L 12.501 23.2 C 12.501 22.88 12.628 22.573 12.855 22.347 C 13.081 22.121 13.387 21.994 13.707 21.994 L 21.549 21.994 C 21.867 21.996 22.172 22.124 22.396 22.35 C 22.621 22.576 22.747 22.881 22.747 23.2 L 22.747 32.729" stroke="#3f3735" stroke-width="2.17042" stroke-miterlimit="10"></path>
    <path d="M 17.589 25.347 L 17.589 35.699" stroke="#3f3735" stroke-width="2.17042" stroke-miterlimit="10" style=""></path>
    <path d="M 32.389 14.096 C 32.095 13.816 31.868 13.486 31.722 13.123 C 31.576 12.759 31.514 12.375 31.541 11.989 C 31.541 11.989 31.541 8.753 31.541 8.443 C 31.541 7.151 31.618 5.684 30.934 4.631 C 30.47 3.83 29.774 3.16 28.92 2.69 C 28.067 2.221 27.087 1.968 26.088 1.962 L 26.018 2.005 L 26.018 4.11 C 26.835 4.143 27.607 4.459 28.172 4.997 C 28.741 5.514 29.06 6.213 29.059 6.942 C 29.059 7.84 29.114 11.997 29.114 11.997 C 29.118 12.741 29.326 13.472 29.72 14.125 C 30.114 14.779 30.68 15.333 31.37 15.739 C 30.68 16.149 30.114 16.704 29.72 17.36 C 29.326 18.013 29.118 18.746 29.114 19.489 C 29.114 19.489 29.059 23.646 29.059 24.546 C 29.054 25.273 28.736 25.971 28.172 26.492 C 27.607 27.027 26.835 27.345 26.018 27.377 L 26.018 29.483 L 26.088 29.526 C 27.087 29.518 28.066 29.265 28.919 28.794 C 29.772 28.325 30.469 27.654 30.934 26.855 C 31.618 25.803 31.58 24.335 31.541 23.043 C 31.541 22.735 31.541 19.496 31.541 19.496 C 31.518 19.112 31.581 18.73 31.727 18.365 C 31.873 18.004 32.098 17.673 32.389 17.39 C 32.875 16.907 33.549 16.61 34.271 16.563 L 34.271 14.925 C 33.55 14.876 32.876 14.581 32.389 14.096 L 32.389 14.096 Z" fill="#028ed3" style=""></path>
    <path d="M 2.883 13.957 C 3.177 13.682 3.404 13.354 3.549 12.996 C 3.695 12.637 3.757 12.257 3.731 11.875 C 3.731 11.875 3.731 8.675 3.731 8.369 C 3.692 7.092 3.653 5.64 4.337 4.599 C 4.802 3.81 5.498 3.148 6.352 2.682 C 7.205 2.218 8.184 1.969 9.184 1.962 L 9.262 2.003 L 9.262 4.086 C 8.441 4.118 7.666 4.43 7.099 4.962 C 6.53 5.473 6.212 6.163 6.212 6.884 C 6.212 7.774 6.165 11.882 6.165 11.882 C 6.158 12.618 5.947 13.339 5.552 13.986 C 5.157 14.631 4.59 15.181 3.902 15.583 C 4.591 15.987 5.158 16.537 5.553 17.185 C 5.948 17.831 6.158 18.554 6.165 19.29 C 6.165 19.29 6.212 23.4 6.212 24.289 C 6.217 25.007 6.535 25.698 7.099 26.212 C 7.666 26.742 8.441 27.057 9.262 27.086 L 9.262 29.169 L 9.184 29.21 C 8.184 29.202 7.206 28.952 6.353 28.488 C 5.5 28.025 4.803 27.362 4.337 26.572 C 3.653 25.531 3.692 24.081 3.731 22.802 C 3.731 22.497 3.731 19.297 3.731 19.297 C 3.753 18.917 3.69 18.536 3.544 18.178 C 3.399 17.821 3.174 17.493 2.883 17.215 C 2.396 16.735 1.722 16.442 1 16.396 L 1 14.778 C 1.722 14.729 2.395 14.436 2.883 13.957 L 2.883 13.957 Z" fill="#028ed3" style=""></path>
    <path d="M 19.596 8.901 L 16.951 8.901 L 20.218 16.027 L 17.161 16.027 L 17.161 18.454 L 24.007 18.454 L 20.74 11.328 L 19.596 8.901 Z" fill="#3f3735"></path>
    <path d="M 21.44 8.901 L 22.506 11.328 L 25.244 11.328 L 25.244 8.901 L 21.44 8.901 Z" fill="#3f3735"></path>
  </g>
  <defs>
    <clipPath id="clip0_5_188">
      <rect width="183" height="34.8746" fill="white" transform="translate(0 0.977722)"></rect>
    </clipPath>
  </defs>
  <text style="fill: rgb(51, 51, 51); font-family: Arial, sans-serif; font-size: 22px; white-space: pre;" x="37.513" y="24.011">Snippets Guru</text>
</svg>