<?xml version="1.0" encoding="UTF-8"?>
<svg xmlns="http://www.w3.org/2000/svg" height="104" viewBox="0 0 429 104" width="429">
  <path d="m309.788189 82.1770223c3.333093 0 6.416689.5622425 9.255632 1.6867274 2.838942 1.1244849 5.329073 2.7107264 7.470391 4.7611169l.358502-5.4405929h13.870124v44.4721813c0 6.445452-1.235376 12.070269-3.698861 16.872059-2.463485 4.801789-5.915272 8.536515-10.350514 11.204176-4.437665 2.672446-9.648045 4.00508-15.628719 4.00508-3.299181 0-6.799413-.452186-10.505541-1.358952-3.706128-.906765-7.494615-2.31596-11.370305-4.23237l4.435243-12.034381c1.700459 1.409195 4.081585 2.610241 7.140958 3.600745 3.05695.990503 5.99763 1.485755 8.819616 1.485755 5.065042 0 9.076381-1.66998 12.034017-5.012331 2.957636-3.33996 4.437665-7.849862 4.437665-13.522529v-.100486c-2.143741 1.880521-4.59027 3.347137-7.344432 4.407023-2.75174 1.057495-5.726332 1.586242-8.923776 1.586242-4.759831 0-9.015823-1.134055-12.77282-3.399773-3.754574-2.265717-6.704943-5.371209-8.846262-9.318869-2.141318-3.942875-3.211977-8.436029-3.211977-13.469894 0-5.038649 1.070659-9.529411 3.211977-13.4746782 2.141319-3.9452673 5.091688-7.0507596 8.846262-9.316477 3.756997-2.2657175 8.012989-3.3997725 12.77282-3.3997725zm-32.928985 2.7056075v50.4009652h-12.841524l-.612539-6.198665c-2.004672 2.284096-4.399142 4.055828-7.18583 5.315193-2.786689 1.26176-5.84454 1.889049-9.173555 1.889049-6.454658 0-11.347705-2.066222-14.679141-6.196271-3.329015-4.134838-4.994733-10.216185-4.994733-18.246437v-26.9159495h14.729984v27.0165065c0 3.763732.798963 6.670329 2.394469 8.717397 1.597928 2.051856 3.890711 3.076587 6.880772 3.076587 3.193433 0 5.784012-1.110923 7.774158-3.325587 1.985304-2.219453 2.980376-5.059011 2.980376-8.518675h.050844v-27.0141132zm-57.585247-27.9579439v77.5607481h-15.296082v-77.5607481zm144.862888 27.9579439v49.6028042h-15.296081v-49.6028042zm-196.202385-26.1542056c9.329577 0 16.619278 2.2017611 21.871485 6.6029156 5.249823 4.4011546 7.873544 10.3743192 7.873544 17.9147589 0 5.0190682-1.186751 9.3705056-3.560253 13.0590472-2.375885 3.6885416-5.776474 6.5460961-10.208917 8.5726631s-9.756141 3.037483-15.975859 3.037483h-10.685524v25.568838h-15.301461v-25.564103h-13.983643c-1.825404 6.37327-5.25459 11.662231-10.323303 15.847945-7.925971 6.543728-19.2811271 9.815592-34.0607033 9.815592h-22.6653002v-12.832309h-17.0956203v-12.831228l17.0956203-.001082v-23.5259013h-17.0956203v-12.8323097h17.0956203v-12.8323098l22.6653002.0994344c14.7795762 0 26.1347323 3.2481894 34.0607033 9.7422007 7.754392 6.3566972 11.688781 15.2963205 11.855594 26.7904601h12.451352v-36.6320952zm236.94552 23.4485981c5.952342 0 10.697734 1.9392372 14.236179 5.8201055 3.53602 3.8808683 5.305242 9.2820027 5.305242 16.2034032v29.383033h-14.745133v-26.560366c0-8.1639483-3.094926-12.2459227-9.28478-12.2459227-3.196718 0-5.792385 1.1563599-7.77973 3.476262-1.989769 2.3175077-2.985865 5.5782997-2.985865 9.7775857v25.552441h-14.691814v-50.3986172h12.854731l.613169 6.1457057c2.006734-2.2839903 4.410937-4.0460625 7.21988-5.2910049 2.804096-1.2401541 5.891752-1.8626253 9.258121-1.8626253zm47.219473 0c2.952953 0 6.06502.3686488 9.33152 1.1129905 3.26884.7396456 6.247533 1.934819 8.940758 3.5808239l-6.254553 10.8270025c-1.446058-.9580172-3.324997-1.8056745-5.639158-2.5453201-2.316501-.7419936-4.279677-1.1129904-5.887188-1.1129904-.919581 0-1.930418.1901945-3.030171.5682356s-1.649629 1.1129905-1.649629 2.2001521c0 1.2186542.762807 2.2236329 2.290762 3.0149363 1.525615.7913033 3.341377 1.5990433 5.442607 2.4208713 2.265023.889923 4.595563 1.937167 6.993961 3.139385 2.396057 1.204566 4.42475 2.801261 6.083739 4.794782 1.656649 1.995869 2.487314 4.604587 2.487314 7.835547s-.886822 6.013436-2.660466 8.354473c-1.773644 2.338689-4.136943 4.125579-7.092237 5.363017-2.955293 1.235091-6.224133 1.852636-9.80184 1.852636-3.383495 0-6.888665-.594064-10.51785-1.779845-3.626845-1.185781-7.099256-3.014936-10.417234-5.487466l6.699133-10.726035c2.824259 1.878465 5.426228 3.369497 7.805906 4.475443 2.382018 1.103598 4.508987 1.655397 6.380907 1.655397 1.443718 0 2.608988-.331079 3.49581-.988542.886822-.659811 1.331403-1.500424 1.331403-2.521839 0-1.483988-.830664-2.686205-2.487313-3.609001-1.658989-.922796-3.570688-1.829155-5.739775-2.71673-2.297781-.958017-4.604923-2.035787-6.921423-3.238004-2.314161-1.204566-4.251599-2.761344-5.809972-4.672682-1.560713-1.911338-2.3399-4.3815193-2.3399-7.4152402 0-4.1842807 1.64963-7.6265678 4.948889-10.3292093 3.301598-2.7026415 7.972038-4.0527882 14.016-4.0527882zm-139.249469 12.9267913c-3.717389 0-6.791939 1.3305486-9.226058 3.9916458-2.431711 2.6635616-3.647567 6.0022526-3.647567 10.0136096 0 4.008894 1.215856 7.347585 3.647567 10.008683 2.434119 2.663561 5.508669 3.994109 9.226058 3.994109 3.714981 0 6.791939-1.330548 9.22365-3.994109 2.431712-2.661098 3.649975-5.999789 3.649975-10.008683 0-4.011357-1.218263-7.350048-3.649975-10.0136096-2.431711-2.6610972-5.508669-3.9916458-9.22365-3.9916458zm-228.3563943-23.5430796h-8.6203963v49.190521h8.6203963c9.6310799 0 17.0159333-2.161472 22.1474603-6.484416 5.131526-4.318075 7.697289-10.391129 7.697289-18.2142935 0-7.7866533-2.565763-13.8183278-7.697289-18.0877213-5.131527-4.2693935-12.5163804-6.4040902-22.1474603-6.4040902zm81.9928593 0h-9.409059v23.5259012h9.409059c5.307485 0 9.34029-1.11516 12.098414-3.3478178 2.758124-2.23032 4.135958-5.0497811 4.135958-8.463059s-1.377834-6.216374-4.135958-8.4163017c-2.758124-2.1975899-6.790929-3.2987227-12.098414-3.2987227zm191.801894-12.8323098c2.563328 0 4.629218.7033134 6.19767 2.107664 1.565915 1.4066266 2.350141 3.2570919 2.350141 5.5582239 0 2.2988559-.784226 4.1515972-2.350141 5.5582239-1.568452 1.4066267-3.634342 2.1076639-6.19767 2.1076639s-4.631755-.7010372-6.19767-2.1076639c-1.568452-1.4066267-2.35014-3.259368-2.35014-5.5582239 0-2.301132.781688-4.1515973 2.35014-5.5582239 1.565915-1.4043506 3.634342-2.107664 6.19767-2.107664z" fill="#ffffff" fill-rule="evenodd" transform="translate(-43 -56)"></path>
</svg>
